<svg width="137" height="163" viewBox="0 0 137 163" fill="none" xmlns="http://www.w3.org/2000/svg">
<path d="M80.1695 13.7101C84.6293 15.3694 87.6996 17.2661 89.2274 22.1307C96.1811 44.2716 103.663 66.2465 110.972 88.2757C116.175 103.959 121.49 119.605 126.581 135.324C128.815 142.221 124.574 147.76 117.249 147.999C105.226 148.392 101.748 145.821 98.0355 134.111C95.9939 127.67 93.7497 121.293 91.5091 114.627C82.7195 119.001 73.919 123.424 65.0804 127.769C55.8102 132.326 46.6274 137.095 37.1537 141.187C33.1903 142.898 28.5797 143.811 24.2558 143.837C16.2335 143.885 11.9789 137.976 14.6931 130.371C17.8884 121.418 21.8179 112.713 25.6881 104.016C37.7298 76.9565 49.9208 49.9634 61.9922 22.9169C65.0909 15.9741 70.6107 12.9539 80.1695 13.7101ZM60.3395 87.9604C57.2513 94.7591 54.1631 101.558 50.581 109.444C59.5252 104.797 67.581 100.728 75.5271 96.4552C85.657 91.0076 85.6252 90.9345 82.207 80.0147C79.9233 72.7193 77.6181 65.4307 75.0958 57.4187C70.0284 68.0014 65.4006 77.6663 60.3395 87.9604Z" fill="#ACB882"/>
</svg>
